<?xml version="1.0" encoding="utf-8"?>
<!-- Generator: Adobe Illustrator 18.1.0, SVG Export Plug-In . SVG Version: 6.00 Build 0)  -->
<svg version="1.1" id="Layer_1" xmlns="http://www.w3.org/2000/svg" xmlns:xlink="http://www.w3.org/1999/xlink" x="0px" y="0px"
	 viewBox="0 0 500 500" enable-background="new 0 0 500 500" xml:space="preserve">
<path fill="#ffffff" d="M388.8,184.1c-12.3,0-24.8,2.2-36.4,6.2c-23.9-57.7-81.3-96.8-144.7-96.8c-79,0-145.5,59.4-155.3,136.9
	C20.7,245.8,0,278.2,0,313.9c0,51.2,41.7,92.7,92.7,92.7h296c61.3,0,111.3-49.9,111.3-111.3C500.1,234,450.2,184.1,388.8,184.1z
	 M388.8,378h-296c-35.4,0-64.3-28.8-64.3-64.3c0-26.8,16.9-51.1,42.2-60.2l8.6-3.2l0.6-9.3C84.5,174.3,140.7,122,207.6,122
	c56.1,0,106.7,37.6,122.7,91.4l5,16.6l15.4-8c11.9-6.2,24.8-9.4,38.2-9.4c45.6,0,82.7,37.1,82.7,82.7
	C471.5,340.9,434.4,378,388.8,378z"/>
</svg>
