<?xml version="1.0" encoding="utf-8"?>
<!-- Generator: Adobe Illustrator 15.0.0, SVG Export Plug-In . SVG Version: 6.00 Build 0)  -->
<!DOCTYPE svg PUBLIC "-//W3C//DTD SVG 1.1//EN" "http://www.w3.org/Graphics/SVG/1.1/DTD/svg11.dtd">
<svg version="1.1" id="Layer_1" xmlns="http://www.w3.org/2000/svg" xmlns:xlink="http://www.w3.org/1999/xlink" x="0px" y="0px"
	 width="500px" height="500px" viewBox="0 0 500 500" enable-background="new 0 0 500 500" xml:space="preserve">
<g>
	<path fill="#ffffff" d="M390.476,116.003c-12.382,0-24.402,2.031-35.912,6.061C331,65.263,274.514,26.795,212.122,26.795
		c-77.752,0-143.281,58.518-152.886,134.757C28.021,176.662,7.61,208.63,7.61,243.727c0,50.363,40.978,91.341,91.349,91.341h291.517
		c60.392,0,109.524-49.132,109.524-109.524C500,165.143,450.867,116.003,390.476,116.003z M390.476,306.965H98.959
		c-34.877,0-63.247-28.369-63.247-63.238c0-26.385,16.686-50.222,41.526-59.318l8.562-3.136l0.627-9.096
		c4.517-65.764,59.726-117.279,125.693-117.279c55.334,0,105,37.01,120.769,90.008l4.861,16.325l15.102-7.873
		c11.777-6.14,24.433-9.252,37.622-9.252c44.897,0,81.422,36.532,81.422,81.438C471.897,270.441,435.373,306.965,390.476,306.965z"
		/>
	<path fill="#ffffff" d="M95.109,358.458L4.136,449.438c-5.465,5.466-5.52,14.35-0.125,19.752s14.279,5.348,19.744-0.117
		l90.988-90.988c5.465-5.465,5.52-14.35,0.118-19.752C109.458,352.938,100.574,352.992,95.109,358.458z"/>
	<path fill="#ffffff" d="M174.868,384.389l-39.111,39.119c-5.465,5.465-5.52,14.349-0.117,19.752
		c5.402,5.402,14.286,5.348,19.751-0.118l39.111-39.119c5.465-5.466,5.52-14.35,0.118-19.752S180.333,378.923,174.868,384.389z"/>
	<path fill="#ffffff" d="M386.265,384.389l-39.111,39.119c-5.466,5.465-5.521,14.349-0.126,19.752
		c5.396,5.402,14.279,5.348,19.744-0.118l39.127-39.119c5.466-5.466,5.521-14.35,0.118-19.752S391.729,378.923,386.265,384.389z"/>
	<path fill="#ffffff" d="M306.505,358.458l-90.988,90.979c-5.465,5.466-5.52,14.35-0.118,19.752
		c5.403,5.402,14.287,5.348,19.752-0.117l90.972-90.988c5.466-5.465,5.521-14.35,0.126-19.752
		C320.854,352.938,311.97,352.992,306.505,358.458z"/>
</g>
</svg>
