<?xml version="1.0" encoding="utf-8"?>
<!-- Generator: Adobe Illustrator 15.0.0, SVG Export Plug-In . SVG Version: 6.00 Build 0)  -->
<!DOCTYPE svg PUBLIC "-//W3C//DTD SVG 1.1//EN" "http://www.w3.org/Graphics/SVG/1.1/DTD/svg11.dtd">
<svg version="1.1" id="Layer_1" xmlns="http://www.w3.org/2000/svg" xmlns:xlink="http://www.w3.org/1999/xlink" x="0px" y="0px"
	 width="500px" height="500px" viewBox="0 0 500 500" enable-background="new 0 0 500 500" xml:space="preserve">
<g>
	<path fill="#ffffff" d="M250,131.633c-65.374,0-118.368,52.999-118.368,118.372c0,65.37,52.995,118.372,118.368,118.372
		c65.374,0,118.368-53.002,118.368-118.372C368.368,184.632,315.374,131.633,250,131.633z M250,341.795
		c-50.614,0-91.786-41.18-91.786-91.79c0-50.614,41.172-91.79,91.786-91.79c50.613,0,91.785,41.176,91.785,91.79
		C341.785,300.615,300.613,341.795,250,341.795z"/>
	<path fill="#ffffff" d="M250,83.415c7.225,0,13.128-5.981,13.128-13.291V13.291C263.128,5.981,257.225,0,250,0
		c-7.224,0-13.128,5.981-13.128,13.291v56.833C236.872,77.434,242.776,83.415,250,83.415z"/>
	<path fill="#ffffff" d="M386.474,132.089l40.185-40.185c5.178-5.17,5.222-13.573,0.119-18.68
		c-5.103-5.106-13.514-5.055-18.676,0.115l-40.186,40.185c-5.178,5.17-5.222,13.573-0.119,18.68
		C372.9,137.311,381.311,137.259,386.474,132.089z"/>
	<path fill="#ffffff" d="M486.707,236.87l-56.822,0.007c-7.306,0-13.291,5.912-13.291,13.121
		c-0.008,7.224,5.979,13.132,13.284,13.132h56.829c7.313,0,13.291-5.908,13.291-13.132
		C499.998,242.773,494.021,236.87,486.707,236.87z"/>
	<path fill="#ffffff" d="M386.48,367.917c-5.17-5.177-13.573-5.222-18.684-0.118c-5.103,5.103-5.051,13.499,0.119,18.676
		l40.186,40.186c5.169,5.162,13.573,5.222,18.676,0.119c5.11-5.104,5.059-13.514-0.111-18.677L386.48,367.917z"/>
	<path fill="#ffffff" d="M250.007,416.588c-7.217,0-13.128,5.993-13.128,13.291v56.83c0,7.312,5.911,13.291,13.128,13.291
		c7.217,0,13.121-5.979,13.121-13.291v-56.83C263.128,422.581,257.225,416.588,250.007,416.588z"/>
	<path fill="#ffffff" d="M113.527,367.917l-40.186,40.186c-5.169,5.163-5.222,13.573-0.119,18.677
		c5.11,5.117,13.514,5.059,18.684-0.104l40.186-40.186c5.169-5.177,5.222-13.573,0.111-18.69
		C127.1,362.695,118.696,362.74,113.527,367.917z"/>
	<path fill="#ffffff" d="M83.414,250.005c0-7.217-5.978-13.128-13.291-13.128h-56.83c-7.313,0-13.291,5.912-13.291,13.128
		c0,7.216,5.978,13.125,13.291,13.125h56.822C77.421,263.13,83.406,257.222,83.414,250.005z"/>
	<path fill="#ffffff" d="M113.512,132.089c5.177,5.17,13.581,5.222,18.691,0.115c5.103-5.107,5.058-13.51-0.111-18.68L91.899,73.339
		c-5.163-5.17-13.573-5.218-18.676-0.111c-5.103,5.106-5.059,13.514,0.111,18.684L113.512,132.089z"/>
</g>
</svg>
